<svg width="24" height="28" viewBox="0 0 24 28" fill="none" xmlns="http://www.w3.org/2000/svg">
<path d="M21.945 3.13371C21.7294 2.93115 21.4694 2.7985 21.1926 2.74982C20.9159 2.70113 20.6327 2.73823 20.373 2.85718L2.45599 11.0546C2.16646 11.1894 1.91997 11.4209 1.74923 11.7182C1.57849 12.0156 1.49158 12.3647 1.50005 12.7193C1.50851 13.074 1.61194 13.4173 1.79661 13.7037C1.98128 13.9902 2.23845 14.2062 2.53399 14.3231L6.39999 15.844L8.49499 23.6935C8.49899 23.7094 8.51199 23.7196 8.51799 23.7343C8.53958 23.7969 8.5711 23.8546 8.61099 23.9043C8.67161 23.981 8.74986 24.0372 8.83699 24.0664C8.84699 24.0709 8.85399 24.0811 8.86399 24.0834H8.86999L8.87299 24.0845C8.95036 24.1034 9.03075 24.0987 9.10599 24.0709C9.11399 24.0686 9.12199 24.0686 9.13099 24.0652C9.20324 24.0365 9.26862 23.9892 9.32199 23.927C9.32799 23.919 9.33799 23.9179 9.34399 23.9111L12.357 20.1416L16.754 24.0006C17.021 24.2375 17.35 24.3656 17.689 24.3656C18.423 24.3656 19.056 23.783 19.207 22.9704L22.469 4.81671C22.5243 4.50853 22.5048 4.1891 22.4125 3.89251C22.3202 3.59591 22.1587 3.33326 21.945 3.13258V3.13371ZM9.58799 17.3344L8.88099 21.2296L7.40599 15.7012L14.721 11.3832L9.72399 17.0476C9.65479 17.126 9.60749 17.2257 9.58799 17.3344ZM18.227 22.7426C18.2082 22.8454 18.1664 22.941 18.1057 23.0202C18.0449 23.0994 17.9672 23.1595 17.88 23.1948C17.7949 23.232 17.7028 23.2433 17.6127 23.2278C17.5225 23.2123 17.4375 23.1705 17.366 23.1064L12.603 18.9256C12.5034 18.8385 12.3785 18.7971 12.2533 18.8097C12.128 18.8223 12.0115 18.888 11.927 18.9936L9.82999 21.6127L10.536 17.7288L17.725 9.58011C17.8092 9.48438 17.8604 9.3577 17.8694 9.22293C17.8784 9.08816 17.8447 8.95417 17.7742 8.84515C17.7037 8.73612 17.6011 8.65924 17.485 8.62838C17.3689 8.59752 17.2469 8.61471 17.141 8.67684L6.77799 14.7946L2.86099 13.251C2.75714 13.2121 2.66655 13.1375 2.60185 13.0376C2.53715 12.9376 2.50154 12.8173 2.49999 12.6934C2.49501 12.5683 2.52449 12.4446 2.58434 12.3394C2.64419 12.2342 2.73144 12.1528 2.83399 12.1063L20.748 3.90891C20.8398 3.86471 20.9407 3.85041 21.0392 3.86763C21.1378 3.88485 21.2302 3.9329 21.306 4.00638C21.3814 4.0755 21.4383 4.167 21.4704 4.27067C21.5026 4.37434 21.5087 4.48609 21.488 4.59344L18.227 22.7438V22.7426Z" fill="black"/>
</svg>
